<svg width="24" height="20" viewBox="0 0 24 20" fill="none" xmlns="http://www.w3.org/2000/svg">
<path d="M15.8417 1.26074H0.949951V14.1669H15.8417V1.26074Z" stroke="black" stroke-width="1.5" stroke-linecap="round" stroke-linejoin="round"/>
<path d="M15.8418 6.22461H19.8129L22.7913 9.20296V14.1669H15.8418V6.22461Z" stroke="black" stroke-width="1.5" stroke-linecap="round" stroke-linejoin="round"/>
<path d="M5.41751 19.1309C6.78826 19.1309 7.89947 18.0197 7.89947 16.649C7.89947 15.2782 6.78826 14.167 5.41751 14.167C4.04676 14.167 2.93555 15.2782 2.93555 16.649C2.93555 18.0197 4.04676 19.1309 5.41751 19.1309Z" stroke="black" stroke-width="1.5" stroke-linecap="round" stroke-linejoin="round"/>
<path d="M18.3238 19.1309C19.6945 19.1309 20.8057 18.0197 20.8057 16.649C20.8057 15.2782 19.6945 14.167 18.3238 14.167C16.953 14.167 15.8418 15.2782 15.8418 16.649C15.8418 18.0197 16.953 19.1309 18.3238 19.1309Z" stroke="black" stroke-width="1.5" stroke-linecap="round" stroke-linejoin="round"/>
</svg>
