<svg width="75" height="79" viewBox="0 0 75 79" fill="none" xmlns="http://www.w3.org/2000/svg">
<path d="M68.7554 46.4482C66.4846 46.4482 64.452 47.827 63.5953 49.9255C62.242 53.2455 60.1941 56.2767 57.4468 59.024C52.0181 64.4527 45.4743 67.1646 37.8051 67.1646C30.136 67.1646 23.5921 64.4527 18.1634 59.024C15.4161 56.2767 13.3683 53.2455 12.0149 49.9255C11.1582 47.827 9.12565 46.4482 6.85481 46.4482C2.87071 46.4482 0.204489 50.4932 1.70993 54.1782C3.60568 58.8162 6.46451 63.0537 10.3016 66.8858C17.8947 74.4789 27.0592 78.2755 37.8051 78.2755C48.551 78.2755 57.7155 74.4789 65.3086 66.8858C69.1406 63.0537 72.0045 58.8162 73.9003 54.1782C75.4057 50.4932 72.7395 46.4482 68.7554 46.4482Z" fill="#8B8D90"/>
<path d="M6.37436 33.5682C8.75671 33.5682 10.8349 32.0374 11.646 29.797C12.9841 26.1018 15.1587 22.7462 18.1645 19.7353C23.5881 14.3117 30.1371 11.5948 37.8062 11.5948C45.4753 11.5948 52.0192 14.3066 57.4479 19.7353C60.4538 22.7411 62.6283 26.0967 63.9664 29.797C64.7775 32.0374 66.8557 33.5682 69.2381 33.5682C73.1106 33.5682 75.7819 29.7209 74.4741 26.0714C72.6037 20.8505 69.5472 16.1162 65.3046 11.8736C57.7115 4.28044 48.542 0.483887 37.8011 0.483887C27.0603 0.483887 17.8907 4.28044 10.2976 11.8736C6.05502 16.1162 2.99852 20.8454 1.12812 26.0714C-0.179635 29.7209 2.49162 33.5682 6.36421 33.5682" fill="black"/>
</svg>
