<svg width="45" height="34" viewBox="0 0 45 34" fill="none" xmlns="http://www.w3.org/2000/svg">
<path d="M34.8202 5.57132C35.0387 5.1872 35.2076 4.8395 35.4245 4.52492C35.8152 3.95536 35.8252 3.37918 35.4924 2.79969C35.1364 2.18046 34.5453 2.05628 33.893 2.12416C33.075 2.2086 32.4508 3.46196 32.8532 4.19709C32.878 4.24345 32.9144 4.28319 32.9442 4.32624C33.4956 5.15905 33.5039 5.17726 32.6065 5.67066C31.681 6.17896 30.7339 6.64752 29.7968 7.1343C29.7339 7.16741 29.6693 7.19556 29.608 7.23033C29.0203 7.56478 28.9954 7.77008 29.4822 8.25355C29.5931 8.36448 29.719 8.46548 29.815 8.588C30.3432 9.2569 30.3514 9.27677 31.1097 8.82973C32.0767 8.26017 33.1529 7.89757 34.0701 7.23861C34.335 7.0482 34.4824 7.11443 34.6297 7.40583C34.8168 7.77339 34.9957 8.14261 35.4195 8.35454C35.7556 8.52177 35.7705 9.05987 35.5371 9.39929C35.2937 9.75361 34.7605 9.94898 34.4807 9.6493C33.9178 9.04331 33.4873 9.41916 32.989 9.67744C32.5071 9.92745 32.0585 10.2437 31.5303 10.4126C31.368 10.4639 31.1246 10.5897 31.2637 10.8381C31.474 11.2139 31.5038 11.6411 31.6478 12.0368C31.7853 12.4143 31.9492 12.4342 32.272 12.3083C33.1926 11.9474 34.0056 11.3795 34.9013 10.9705C34.9327 10.9556 34.9609 10.9341 34.994 10.9192C35.6662 10.6063 36.1315 10.3265 36.1265 9.33471C36.1182 7.57471 37.7987 6.23194 39.466 6.4538C41.3452 6.70381 42.3883 8.03499 42.2244 9.91255C42.1963 10.2338 42.2608 10.3116 42.5373 10.4755C44.1964 11.4557 44.8984 14.0369 42.6946 15.6346C41.438 16.5453 39.9743 16.4244 38.8004 15.3283C38.5587 15.1032 38.3865 15.0883 38.1216 15.234C37.1365 15.7737 36.1215 16.2522 35.0884 16.6976C34.4741 16.9625 33.9642 17.4029 33.5105 17.9129C33.1611 18.3036 32.7042 18.5983 32.3648 18.9957C31.0832 20.4991 30.0153 22.1283 29.2885 23.9909C28.9557 24.8453 28.2255 25.4628 27.5268 26.0655C26.8761 26.6268 26.1476 26.8718 25.2949 26.8172C24.7552 26.7824 24.4919 26.6003 24.4572 26.1533C24.4207 25.6797 24.727 25.284 25.2171 25.2426C25.5764 25.2128 25.896 25.0853 26.2321 24.986C27.0814 24.7343 27.343 23.9578 27.7553 23.3253C28.0417 22.8849 28.2636 22.3998 28.4987 21.9279C29.1842 20.557 29.969 19.2689 31.0319 18.138C31.6942 17.4327 32.3085 16.6943 33.1264 16.1628C33.3946 15.989 33.4443 15.7803 33.3035 15.4889C33.1198 15.1098 32.9409 14.7223 32.8118 14.3217C32.6777 13.9028 32.436 13.9044 32.0916 14.0236C31.0005 14.4045 29.8746 14.5253 28.7173 14.5303C26.8827 14.5386 25.0499 14.5651 23.2634 14.0799C21.9008 13.7107 20.5315 13.5683 19.1341 13.7786C17.788 13.9806 16.4668 14.3001 15.3575 15.1313C13.4269 16.58 12.6173 19.2937 13.5263 21.6713C13.8127 22.4213 14.2564 23.072 14.6935 23.7177C15.2333 24.5141 16.0628 24.8867 17.033 24.9512C17.6224 24.9893 17.9602 25.3055 17.985 25.7576C18.0099 26.2245 17.6258 26.6235 17.1092 26.6136C16.0926 26.592 15.1786 26.2808 14.417 25.5771C13.7978 25.0059 13.1289 24.4843 12.7266 23.7128C11.4914 21.3451 11.152 18.9642 12.3275 16.4327C13.3425 14.2488 15.1472 13.0584 17.3012 12.4838C19.1043 12.002 21.005 11.9971 22.8942 12.3481C24.7386 12.6908 26.5913 13.0799 28.4904 12.9375C28.9457 12.9027 29.4027 12.8597 29.8564 12.8067C30.0484 12.7835 30.2703 12.7587 30.1461 12.4524C29.4441 10.7371 28.5269 9.18736 27.0036 8.04824C25.141 6.6558 23.0564 6.23029 20.7782 6.3942C18.4917 6.55811 16.3558 7.19225 14.3591 8.29163C13.609 8.70555 12.8838 9.17411 12.3209 9.8546C11.96 10.2917 11.4815 10.5997 10.9881 10.8745C10.0808 11.3762 9.19661 11.9391 8.37208 12.5435C6.9846 13.5567 5.76436 14.7853 4.87525 16.2986C3.37353 18.8566 3.02253 21.5537 3.88183 24.3999C4.47457 26.3652 5.99781 27.3205 7.78099 27.9878C9.10389 28.4828 10.4914 28.5938 11.8822 28.5971C17.8443 28.612 23.8065 28.612 29.7686 28.5987C31.921 28.5938 33.8764 27.9845 35.7738 26.9066C38.259 25.4943 39.4147 22.062 38.0637 19.1C37.8517 18.6348 37.6282 18.1811 37.3153 17.7705C37.004 17.3615 37.0322 16.8648 37.3401 16.6231C37.6564 16.3731 38.3269 16.4857 38.6084 16.8549C40.1697 18.8947 40.4628 21.1945 40.0157 23.6581C39.7674 25.0291 39.0339 26.0705 38.0885 27.0639C36.3914 28.8471 34.2208 29.559 31.9243 29.9812C29.815 30.3687 27.6675 30.1402 25.5367 30.1501C20.8626 30.1716 16.1886 30.1485 11.5146 30.1501C9.51285 30.1501 7.60218 29.7345 5.79747 28.8835C4.96962 28.4928 4.30734 27.8735 3.68811 27.1699C2.65496 25.9993 2.02083 24.6549 1.87016 23.1498C1.59532 20.4113 1.99434 17.7953 3.51592 15.3995C4.6153 13.671 6.03589 12.2951 7.67337 11.1113C8.12372 10.7851 8.55089 10.4391 9.07244 10.2023C9.82578 9.85957 10.4516 9.31485 11.0758 8.75853C12.1355 7.81148 13.2547 6.88429 14.5727 6.34453C16.3393 5.62099 18.1572 5.02991 20.0911 4.87262C21.7004 4.74182 23.2899 4.71864 24.8512 5.19713C25.593 5.42396 26.3314 5.68556 26.9722 6.12267C27.4622 6.45877 27.901 6.4091 28.3613 6.16075C29.2587 5.67397 30.1412 5.16402 31.0385 4.67559C31.2554 4.55803 31.267 4.43386 31.214 4.20537C30.9375 3.00996 31.5568 1.59434 32.6015 0.973454C33.8135 0.253226 35.1529 0.364158 36.1729 1.25327C36.9792 1.95528 37.4262 2.80796 37.312 3.90238C37.2904 4.09941 37.3053 4.19213 37.5388 4.2716C38.0123 4.4322 38.2574 5.01997 38.0852 5.43224C37.86 5.97365 37.4958 6.09617 36.8782 5.78987C36.2391 5.47198 35.5553 5.70046 34.8202 5.56966V5.57132ZM39.721 11.5318C39.9429 11.0666 40.12 10.6808 40.4181 10.3397C40.8866 9.80328 40.6912 8.79661 40.0935 8.34958C39.5389 7.93565 38.3418 8.06811 37.9693 8.58469C37.6762 8.99033 37.6862 10.0665 37.9974 10.4722C38.2027 10.7387 38.3186 10.9441 37.9213 11.1725C37.716 11.2917 37.5322 11.4639 37.3087 11.5716C36.6265 11.8977 35.9377 12.214 35.2639 12.5567C33.9393 13.2306 33.9691 13.2239 34.6215 14.5899C34.8284 15.022 35.0221 14.9657 35.3483 14.8167C36.3848 14.3482 37.4179 13.8763 38.4229 13.3398C39.1928 12.9292 39.2061 12.9574 39.615 13.7455C39.6796 13.8697 39.7657 13.9823 39.8452 14.0982C40.1896 14.5982 41.5191 14.7604 41.9115 14.3018C42.3105 13.8332 42.5241 13.2571 42.3105 12.6362C42.0969 12.0169 41.6499 11.6692 40.9661 11.6477C40.5654 11.6361 40.1664 11.5749 39.7194 11.5318H39.721Z" fill="black"/>
<path d="M2.81401 30.7115C7.54268 32.9235 34.7789 32.9235 38.8138 30.7314C38.476 30.4847 38.0737 30.4814 37.7393 30.3208C37.6134 30.2612 37.4644 30.2479 37.3468 30.1784C36.976 29.9631 36.8667 29.6204 36.971 29.223C37.0753 28.8306 37.4396 28.6882 37.7525 28.7495C38.6184 28.9167 39.5191 28.9598 40.2609 29.5774C41.0871 30.2661 41.1136 31.0277 40.2542 31.6652C39.2194 32.4334 37.9942 32.7546 36.7723 32.9219C35.5405 33.0907 34.307 33.2811 33.0652 33.4086C29.9773 33.7265 26.8829 33.8706 23.7801 33.9351C19.7584 34.0196 15.74 33.9484 11.7283 33.6835C9.74641 33.5527 7.77613 33.2894 5.80586 33.0162C4.64521 32.8556 3.53921 32.594 2.44479 32.2116C2.00272 32.0576 1.6335 31.7844 1.28746 31.4864C0.73115 31.0062 0.726183 30.3456 1.22289 29.8174C1.9961 28.9962 3.0425 28.8869 4.06241 28.7512C4.38361 28.7081 4.72303 28.9101 4.78429 29.3108C4.85052 29.7479 4.67336 30.079 4.25447 30.2347C3.8124 30.3986 3.35874 30.531 2.81567 30.7082L2.81401 30.7115Z" fill="black"/>
</svg>
