<svg width="24" height="24" viewBox="0 0 24 24" fill="none" xmlns="http://www.w3.org/2000/svg">
<path d="M12.0894 15.0215C13.7462 15.0215 15.0894 13.6783 15.0894 12.0215C15.0894 10.3646 13.7462 9.02148 12.0894 9.02148C10.4325 9.02148 9.08936 10.3646 9.08936 12.0215C9.08936 13.6783 10.4325 15.0215 12.0894 15.0215Z" stroke="black" stroke-width="1.5" stroke-linecap="round" stroke-linejoin="round"/>
<path d="M19.4894 15.0215C19.3562 15.3231 19.3165 15.6577 19.3754 15.9821C19.4342 16.3065 19.5888 16.6058 19.8194 16.8415L19.8794 16.9015C20.0653 17.0872 20.2128 17.3078 20.3135 17.5506C20.4141 17.7934 20.4659 18.0537 20.4659 18.3165C20.4659 18.5793 20.4141 18.8396 20.3135 19.0824C20.2128 19.3252 20.0653 19.5457 19.8794 19.7315C19.6936 19.9174 19.473 20.065 19.2302 20.1656C18.9874 20.2663 18.7272 20.3181 18.4644 20.3181C18.2015 20.3181 17.9413 20.2663 17.6985 20.1656C17.4557 20.065 17.2351 19.9174 17.0494 19.7315L16.9894 19.6715C16.7537 19.4409 16.4543 19.2863 16.1299 19.2275C15.8055 19.1687 15.471 19.2084 15.1694 19.3415C14.8736 19.4682 14.6213 19.6787 14.4437 19.947C14.266 20.2153 14.1706 20.5297 14.1694 20.8515V21.0215C14.1694 21.5519 13.9586 22.0606 13.5836 22.4357C13.2085 22.8108 12.6998 23.0215 12.1694 23.0215C11.6389 23.0215 11.1302 22.8108 10.7551 22.4357C10.3801 22.0606 10.1694 21.5519 10.1694 21.0215V20.9315C10.1616 20.6005 10.0545 20.2795 9.86187 20.0102C9.66926 19.7409 9.40009 19.5358 9.08936 19.4215C8.78774 19.2884 8.45316 19.2487 8.12877 19.3075C7.80437 19.3663 7.50503 19.5209 7.26936 19.7515L7.20936 19.8115C7.02361 19.9974 6.80303 20.145 6.56024 20.2456C6.31744 20.3463 6.05719 20.3981 5.79436 20.3981C5.53152 20.3981 5.27127 20.3463 5.02847 20.2456C4.78568 20.145 4.5651 19.9974 4.37936 19.8115C4.1934 19.6257 4.04588 19.4052 3.94524 19.1624C3.84459 18.9196 3.79278 18.6593 3.79278 18.3965C3.79278 18.1337 3.84459 17.8734 3.94524 17.6306C4.04588 17.3878 4.1934 17.1672 4.37936 16.9815L4.43936 16.9215C4.66989 16.6858 4.82454 16.3865 4.88336 16.0621C4.94218 15.7377 4.90247 15.4031 4.76936 15.1015C4.64259 14.8057 4.43211 14.5535 4.16382 14.3758C3.89553 14.1981 3.58114 14.1028 3.25936 14.1015H3.08936C2.55892 14.1015 2.05021 13.8908 1.67514 13.5157C1.30007 13.1406 1.08936 12.6319 1.08936 12.1015C1.08936 11.5711 1.30007 11.0623 1.67514 10.6873C2.05021 10.3122 2.55892 10.1015 3.08936 10.1015H3.17936C3.51035 10.0937 3.83136 9.9866 4.10065 9.79399C4.36995 9.60139 4.57507 9.33222 4.68936 9.02148C4.82247 8.71987 4.86218 8.38529 4.80336 8.0609C4.74454 7.7365 4.58989 7.43716 4.35936 7.20148L4.29936 7.14148C4.1134 6.95574 3.96588 6.73516 3.86524 6.49236C3.76459 6.24957 3.71278 5.98932 3.71278 5.72648C3.71278 5.46365 3.76459 5.2034 3.86524 4.9606C3.96588 4.71781 4.1134 4.49723 4.29936 4.31148C4.4851 4.12553 4.70568 3.97801 4.94847 3.87736C5.19127 3.77672 5.45152 3.72491 5.71436 3.72491C5.97719 3.72491 6.23744 3.77672 6.48024 3.87736C6.72303 3.97801 6.94361 4.12553 7.12936 4.31148L7.18936 4.37148C7.42503 4.60202 7.72437 4.75667 8.04877 4.81549C8.37316 4.87431 8.70774 4.8346 9.00936 4.70148H9.08936C9.38512 4.57472 9.63737 4.36424 9.81505 4.09595C9.99272 3.82766 10.0881 3.51327 10.0894 3.19148V3.02148C10.0894 2.49105 10.3001 1.98234 10.6751 1.60727C11.0502 1.2322 11.5589 1.02148 12.0894 1.02148C12.6198 1.02148 13.1285 1.2322 13.5036 1.60727C13.8786 1.98234 14.0894 2.49105 14.0894 3.02148V3.11148C14.0906 3.43327 14.186 3.74766 14.3637 4.01595C14.5413 4.28424 14.7936 4.49472 15.0894 4.62148C15.391 4.7546 15.7255 4.79431 16.0499 4.73549C16.3743 4.67667 16.6737 4.52202 16.9094 4.29148L16.9694 4.23148C17.1551 4.04553 17.3757 3.89801 17.6185 3.79736C17.8613 3.69672 18.1215 3.64491 18.3844 3.64491C18.6472 3.64491 18.9074 3.69672 19.1502 3.79736C19.393 3.89801 19.6136 4.04553 19.7994 4.23148C19.9853 4.41723 20.1328 4.63781 20.2335 4.8806C20.3341 5.1234 20.3859 5.38365 20.3859 5.64648C20.3859 5.90932 20.3341 6.16957 20.2335 6.41236C20.1328 6.65516 19.9853 6.87574 19.7994 7.06148L19.7394 7.12148C19.5088 7.35716 19.3542 7.6565 19.2954 7.9809C19.2365 8.30529 19.2762 8.63987 19.4094 8.94148V9.02148C19.5361 9.31725 19.7466 9.5695 20.0149 9.74718C20.2832 9.92485 20.5976 10.0202 20.9194 10.0215H21.0894C21.6198 10.0215 22.1285 10.2322 22.5036 10.6073C22.8786 10.9823 23.0894 11.4911 23.0894 12.0215C23.0894 12.5519 22.8786 13.0606 22.5036 13.4357C22.1285 13.8108 21.6198 14.0215 21.0894 14.0215H20.9994C20.6776 14.0228 20.3632 14.1181 20.0949 14.2958C19.8266 14.4735 19.6161 14.7257 19.4894 15.0215Z" stroke="black" stroke-width="1.5" stroke-linecap="round" stroke-linejoin="round"/>
</svg>
