<svg width="20" height="22" viewBox="0 0 20 22" fill="none" xmlns="http://www.w3.org/2000/svg">
<path d="M14.3955 8.53668L5.39551 3.34668" stroke="black" stroke-width="1.5" stroke-linecap="round" stroke-linejoin="round"/>
<path d="M18.8955 15.1366V7.13662C18.8951 6.7859 18.8026 6.44143 18.627 6.13778C18.4515 5.83414 18.1992 5.58198 17.8955 5.40662L10.8955 1.40662C10.5915 1.23108 10.2466 1.13867 9.89551 1.13867C9.54443 1.13867 9.19955 1.23108 8.89551 1.40662L1.89551 5.40662C1.59177 5.58198 1.33949 5.83414 1.16397 6.13778C0.988451 6.44143 0.895868 6.7859 0.895508 7.13662V15.1366C0.895868 15.4873 0.988451 15.8318 1.16397 16.1355C1.33949 16.4391 1.59177 16.6913 1.89551 16.8666L8.89551 20.8666C9.19955 21.0422 9.54443 21.1346 9.89551 21.1346C10.2466 21.1346 10.5915 21.0422 10.8955 20.8666L17.8955 16.8666C18.1992 16.6913 18.4515 16.4391 18.627 16.1355C18.8026 15.8318 18.8951 15.4873 18.8955 15.1366Z" stroke="black" stroke-width="1.5" stroke-linecap="round" stroke-linejoin="round"/>
<path d="M1.16553 6.09668L9.89553 11.1467L18.6255 6.09668" stroke="black" stroke-width="1.5" stroke-linecap="round" stroke-linejoin="round"/>
<path d="M9.89551 21.2167V11.1367" stroke="black" stroke-width="1.5" stroke-linecap="round" stroke-linejoin="round"/>
</svg>
